<svg width="271" height="50" viewBox="0 0 271 50" fill="none" xmlns="http://www.w3.org/2000/svg">
<path d="M0.712 50V11.6C0.712 10.192 1.05333 8.912 1.736 7.76C2.41867 6.56533 3.336 5.62666 4.488 4.944C5.68267 4.26133 6.984 3.92 8.392 3.92H39.112C40.52 3.92 41.8 4.26133 42.952 4.944C44.1467 5.62666 45.0853 6.56533 45.768 7.76C46.4507 8.912 46.792 10.192 46.792 11.6V50H41.608V33.168H5.896V50H0.712ZM5.896 27.984H41.608V11.6C41.608 10.9173 41.352 10.3413 40.84 9.872C40.3707 9.36 39.7947 9.104 39.112 9.104H8.392C7.70933 9.104 7.112 9.36 6.6 9.872C6.13067 10.3413 5.896 10.9173 5.896 11.6V27.984ZM53.828 50V20.624C53.828 19.216 54.1693 17.936 54.852 16.784C55.5773 15.5893 56.516 14.6507 57.668 13.968C58.8627 13.2427 60.164 12.88 61.572 12.88H82.436V18.128H61.572C60.8893 18.128 60.292 18.384 59.78 18.896C59.3107 19.3653 59.076 19.9413 59.076 20.624V50H53.828ZM94.386 50C92.9353 50 91.6127 49.6587 90.418 48.976C89.266 48.2507 88.3487 47.312 87.666 46.16C86.9833 44.9653 86.642 43.664 86.642 42.256V0.719997H91.89V12.88H107.954V18.128H91.89V42.256C91.89 42.9387 92.1247 43.536 92.594 44.048C93.106 44.5173 93.7033 44.752 94.386 44.752H107.954V50H94.386ZM113.141 50V12.88H118.389V50H113.141ZM113.141 5.968V0.719997H118.389V5.968H113.141ZM133.196 50C131.788 50 130.486 49.6587 129.292 48.976C128.14 48.2507 127.201 47.312 126.476 46.16C125.793 44.9653 125.452 43.664 125.452 42.256V20.624C125.452 19.216 125.793 17.936 126.476 16.784C127.201 15.5893 128.14 14.6507 129.292 13.968C130.486 13.2427 131.788 12.88 133.196 12.88H163.148V18.128H133.196C132.513 18.128 131.916 18.384 131.404 18.896C130.934 19.3653 130.7 19.9413 130.7 20.624V42.256C130.7 42.9387 130.934 43.536 131.404 44.048C131.916 44.5173 132.513 44.752 133.196 44.752H163.276V50H133.196ZM177.76 50C176.352 50 175.05 49.6587 173.856 48.976C172.704 48.2507 171.765 47.312 171.04 46.16C170.357 44.9653 170.016 43.664 170.016 42.256V0.719997H175.264V42.256C175.264 42.9387 175.498 43.536 175.968 44.048C176.48 44.5173 177.077 44.752 177.76 44.752H184.032V50H177.76ZM196.071 50C194.663 50 193.361 49.6587 192.167 48.976C191.015 48.2507 190.076 47.312 189.351 46.16C188.668 44.9653 188.327 43.664 188.327 42.256V20.624C188.327 19.216 188.668 17.936 189.351 16.784C190.076 15.5893 191.015 14.6507 192.167 13.968C193.361 13.2427 194.663 12.88 196.071 12.88H218.343C219.793 12.88 221.095 13.2427 222.247 13.968C223.441 14.6507 224.38 15.5893 225.062 16.784C225.788 17.936 226.151 19.216 226.151 20.624V34.064H193.575V42.256C193.575 42.9387 193.809 43.536 194.279 44.048C194.791 44.5173 195.388 44.752 196.071 44.752H226.151V50H196.071ZM193.575 28.816H220.839V20.624C220.839 19.9413 220.583 19.3653 220.071 18.896C219.601 18.384 219.025 18.128 218.343 18.128H196.071C195.388 18.128 194.791 18.384 194.279 18.896C193.809 19.3653 193.575 19.9413 193.575 20.624V28.816ZM240.191 50C238.783 50 237.482 49.6587 236.287 48.976C235.135 48.2507 234.196 47.312 233.471 46.16C232.788 44.9653 232.447 43.664 232.447 42.256V41.744H237.695V42.256C237.695 42.9387 237.93 43.536 238.399 44.048C238.911 44.5173 239.508 44.752 240.191 44.752H262.463C263.146 44.752 263.722 44.5173 264.191 44.048C264.703 43.536 264.959 42.9387 264.959 42.256V36.56C264.959 35.8773 264.703 35.3013 264.191 34.832C263.722 34.32 263.146 34.064 262.463 34.064H240.191C238.783 34.064 237.482 33.7227 236.287 33.04C235.135 32.3147 234.196 31.376 233.471 30.224C232.788 29.0293 232.447 27.728 232.447 26.32V20.624C232.447 19.216 232.788 17.936 233.471 16.784C234.196 15.5893 235.135 14.6507 236.287 13.968C237.482 13.2427 238.783 12.88 240.191 12.88H262.463C263.914 12.88 265.215 13.2427 266.367 13.968C267.562 14.6507 268.5 15.5893 269.183 16.784C269.908 17.936 270.271 19.216 270.271 20.624V21.136H264.959V20.624C264.959 19.9413 264.703 19.3653 264.191 18.896C263.722 18.384 263.146 18.128 262.463 18.128H240.191C239.508 18.128 238.911 18.384 238.399 18.896C237.93 19.3653 237.695 19.9413 237.695 20.624V26.32C237.695 27.0027 237.93 27.6 238.399 28.112C238.911 28.5813 239.508 28.816 240.191 28.816H262.463C263.914 28.816 265.215 29.1787 266.367 29.904C267.562 30.5867 268.5 31.5253 269.183 32.72C269.908 33.872 270.271 35.152 270.271 36.56V42.256C270.271 43.664 269.908 44.9653 269.183 46.16C268.5 47.312 267.562 48.2507 266.367 48.976C265.215 49.6587 263.914 50 262.463 50H240.191Z" fill="white"/>
</svg>
