<svg width="552" height="50" viewBox="0 0 552 50" fill="none" xmlns="http://www.w3.org/2000/svg">
<path d="M8.264 50C6.856 50 5.55467 49.6587 4.36 48.976C3.208 48.2933 2.29067 47.376 1.608 46.224C0.925333 45.0293 0.584 43.728 0.584 42.32V11.6C0.584 10.192 0.925333 8.912 1.608 7.76C2.29067 6.56533 3.208 5.62666 4.36 4.944C5.55467 4.26133 6.856 3.92 8.264 3.92H46.536V9.104H8.264C7.58133 9.104 6.984 9.36 6.472 9.872C6.00267 10.3413 5.768 10.9173 5.768 11.6V42.32C5.768 43.0027 6.00267 43.6 6.472 44.112C6.984 44.5813 7.58133 44.816 8.264 44.816H46.536V50H8.264ZM60.761 50C59.353 50 58.0517 49.6587 56.857 48.976C55.705 48.2507 54.7663 47.312 54.041 46.16C53.3583 44.9653 53.017 43.664 53.017 42.256V12.88H58.265V42.256C58.265 42.9387 58.4997 43.536 58.969 44.048C59.481 44.5173 60.0783 44.752 60.761 44.752H83.033C83.7157 44.752 84.313 44.5173 84.825 44.048C85.337 43.536 85.593 42.9387 85.593 42.256V12.88H90.841V42.256C90.841 43.664 90.4783 44.9653 89.753 46.16C89.0703 47.312 88.1317 48.2507 86.937 48.976C85.785 49.6587 84.4837 50 83.033 50H60.761ZM104.004 50C102.596 50 101.294 49.6587 100.1 48.976C98.9475 48.2507 98.0088 47.312 97.2835 46.16C96.6008 44.9653 96.2595 43.664 96.2595 42.256V41.744H101.508V42.256C101.508 42.9387 101.742 43.536 102.212 44.048C102.724 44.5173 103.321 44.752 104.004 44.752H126.276C126.958 44.752 127.534 44.5173 128.004 44.048C128.516 43.536 128.772 42.9387 128.772 42.256V36.56C128.772 35.8773 128.516 35.3013 128.004 34.832C127.534 34.32 126.958 34.064 126.276 34.064H104.004C102.596 34.064 101.294 33.7227 100.1 33.04C98.9475 32.3147 98.0088 31.376 97.2835 30.224C96.6008 29.0293 96.2595 27.728 96.2595 26.32V20.624C96.2595 19.216 96.6008 17.936 97.2835 16.784C98.0088 15.5893 98.9475 14.6507 100.1 13.968C101.294 13.2427 102.596 12.88 104.004 12.88H126.276C127.726 12.88 129.028 13.2427 130.18 13.968C131.374 14.6507 132.313 15.5893 132.996 16.784C133.721 17.936 134.084 19.216 134.084 20.624V21.136H128.772V20.624C128.772 19.9413 128.516 19.3653 128.004 18.896C127.534 18.384 126.958 18.128 126.276 18.128H104.004C103.321 18.128 102.724 18.384 102.212 18.896C101.742 19.3653 101.508 19.9413 101.508 20.624V26.32C101.508 27.0027 101.742 27.6 102.212 28.112C102.724 28.5813 103.321 28.816 104.004 28.816H126.276C127.726 28.816 129.028 29.1787 130.18 29.904C131.374 30.5867 132.313 31.5253 132.996 32.72C133.721 33.872 134.084 35.152 134.084 36.56V42.256C134.084 43.664 133.721 44.9653 132.996 46.16C132.313 47.312 131.374 48.2507 130.18 48.976C129.028 49.6587 127.726 50 126.276 50H104.004ZM148.199 50C146.748 50 145.425 49.6587 144.231 48.976C143.079 48.2507 142.161 47.312 141.479 46.16C140.796 44.9653 140.455 43.664 140.455 42.256V0.719997H145.703V12.88H161.767V18.128H145.703V42.256C145.703 42.9387 145.937 43.536 146.407 44.048C146.919 44.5173 147.516 44.752 148.199 44.752H161.767V50H148.199ZM174.321 50C172.913 50 171.611 49.6587 170.417 48.976C169.265 48.2507 168.326 47.312 167.601 46.16C166.918 44.9653 166.577 43.664 166.577 42.256V20.624C166.577 19.216 166.918 17.936 167.601 16.784C168.326 15.5893 169.265 14.6507 170.417 13.968C171.611 13.2427 172.913 12.88 174.321 12.88H196.593C198.043 12.88 199.345 13.2427 200.497 13.968C201.691 14.6507 202.63 15.5893 203.312 16.784C204.038 17.936 204.401 19.216 204.401 20.624V42.256C204.401 43.664 204.038 44.9653 203.312 46.16C202.63 47.312 201.691 48.2507 200.497 48.976C199.345 49.6587 198.043 50 196.593 50H174.321ZM174.321 44.752H196.593C197.275 44.752 197.851 44.5173 198.321 44.048C198.833 43.536 199.089 42.9387 199.089 42.256V20.624C199.089 19.9413 198.833 19.3653 198.321 18.896C197.851 18.384 197.275 18.128 196.593 18.128H174.321C173.638 18.128 173.041 18.384 172.529 18.896C172.059 19.3653 171.825 19.9413 171.825 20.624V42.256C171.825 42.9387 172.059 43.536 172.529 44.048C173.041 44.5173 173.638 44.752 174.321 44.752ZM211.081 50V12.88H260.105C261.556 12.88 262.857 13.2427 264.009 13.968C265.204 14.6507 266.142 15.5893 266.825 16.784C267.508 17.936 267.849 19.216 267.849 20.624V50H262.665V20.624C262.665 19.9413 262.409 19.3653 261.897 18.896C261.385 18.384 260.788 18.128 260.105 18.128H244.681C243.998 18.128 243.401 18.384 242.889 18.896C242.42 19.3653 242.185 19.9413 242.185 20.624V50H236.873V20.624C236.873 19.9413 236.617 19.3653 236.105 18.896C235.636 18.384 235.06 18.128 234.377 18.128H218.889C218.206 18.128 217.609 18.384 217.097 18.896C216.628 19.3653 216.393 19.9413 216.393 20.624V50H211.081ZM273.516 50V12.88H278.764V50H273.516ZM273.516 5.968V0.719997H278.764V5.968H273.516ZM286.956 50V42.832L319.02 18.128H286.956V12.88H324.78V20.048L292.716 44.752H324.78V50H286.956ZM337.571 50C336.163 50 334.861 49.6587 333.667 48.976C332.515 48.2507 331.576 47.312 330.851 46.16C330.168 44.9653 329.827 43.664 329.827 42.256V20.624C329.827 19.216 330.168 17.936 330.851 16.784C331.576 15.5893 332.515 14.6507 333.667 13.968C334.861 13.2427 336.163 12.88 337.571 12.88H359.843C361.293 12.88 362.595 13.2427 363.747 13.968C364.941 14.6507 365.88 15.5893 366.562 16.784C367.288 17.936 367.651 19.216 367.651 20.624V34.064H335.075V42.256C335.075 42.9387 335.309 43.536 335.779 44.048C336.291 44.5173 336.888 44.752 337.571 44.752H367.651V50H337.571ZM335.075 28.816H362.339V20.624C362.339 19.9413 362.083 19.3653 361.571 18.896C361.101 18.384 360.525 18.128 359.843 18.128H337.571C336.888 18.128 336.291 18.384 335.779 18.896C335.309 19.3653 335.075 19.9413 335.075 20.624V28.816ZM411.545 50V32.656L390.361 3.92H396.312L414.169 26.448L431.833 3.92H437.913L416.729 32.656V50H411.545ZM443.258 50C441.85 50 440.549 49.6587 439.354 48.976C438.202 48.2507 437.263 47.312 436.538 46.16C435.855 44.9653 435.514 43.664 435.514 42.256V20.624C435.514 19.216 435.855 17.936 436.538 16.784C437.263 15.5893 438.202 14.6507 439.354 13.968C440.549 13.2427 441.85 12.88 443.258 12.88H465.53C466.981 12.88 468.282 13.2427 469.434 13.968C470.629 14.6507 471.567 15.5893 472.25 16.784C472.975 17.936 473.338 19.216 473.338 20.624V42.256C473.338 43.664 472.975 44.9653 472.25 46.16C471.567 47.312 470.629 48.2507 469.434 48.976C468.282 49.6587 466.981 50 465.53 50H443.258ZM443.258 44.752H465.53C466.213 44.752 466.789 44.5173 467.258 44.048C467.77 43.536 468.026 42.9387 468.026 42.256V20.624C468.026 19.9413 467.77 19.3653 467.258 18.896C466.789 18.384 466.213 18.128 465.53 18.128H443.258C442.575 18.128 441.978 18.384 441.466 18.896C440.997 19.3653 440.762 19.9413 440.762 20.624V42.256C440.762 42.9387 440.997 43.536 441.466 44.048C441.978 44.5173 442.575 44.752 443.258 44.752ZM486.199 50C484.791 50 483.489 49.6587 482.295 48.976C481.143 48.2507 480.204 47.312 479.479 46.16C478.796 44.9653 478.455 43.664 478.455 42.256V12.88H483.703V42.256C483.703 42.9387 483.937 43.536 484.407 44.048C484.919 44.5173 485.516 44.752 486.199 44.752H508.471C509.153 44.752 509.751 44.5173 510.263 44.048C510.775 43.536 511.031 42.9387 511.031 42.256V12.88H516.279V42.256C516.279 43.664 515.916 44.9653 515.191 46.16C514.508 47.312 513.569 48.2507 512.375 48.976C511.223 49.6587 509.921 50 508.471 50H486.199ZM522.891 50V20.624C522.891 19.216 523.232 17.936 523.915 16.784C524.64 15.5893 525.579 14.6507 526.731 13.968C527.925 13.2427 529.227 12.88 530.635 12.88H551.499V18.128H530.635C529.952 18.128 529.355 18.384 528.843 18.896C528.373 19.3653 528.139 19.9413 528.139 20.624V50H522.891Z" fill="white"/>
</svg>
