<svg width="533" height="50" viewBox="0 0 533 50" fill="none" xmlns="http://www.w3.org/2000/svg">
<path d="M0.648 50V3.856H5.832V44.816H46.728V50H0.648ZM57.947 50C56.539 50 55.2377 49.6587 54.043 48.976C52.891 48.2507 51.9523 47.312 51.227 46.16C50.5443 44.9653 50.203 43.664 50.203 42.256V28.816H82.715V20.624C82.715 19.9413 82.459 19.3653 81.947 18.896C81.4777 18.384 80.9017 18.128 80.219 18.128H50.203V12.88H80.219C81.6697 12.88 82.971 13.2427 84.123 13.968C85.3177 14.6507 86.2563 15.5893 86.939 16.784C87.6643 17.936 88.027 19.216 88.027 20.624V50H57.947ZM57.947 44.752H82.715V34.064H55.451V42.256C55.451 42.9387 55.6857 43.536 56.155 44.048C56.667 44.5173 57.2643 44.752 57.947 44.752ZM102.449 50C100.998 50 99.6752 49.6587 98.4805 48.976C97.3285 48.2507 96.4112 47.312 95.7285 46.16C95.0458 44.9653 94.7045 43.664 94.7045 42.256V0.719997H99.9525V12.88H116.017V18.128H99.9525V42.256C99.9525 42.9387 100.187 43.536 100.657 44.048C101.169 44.5173 101.766 44.752 102.449 44.752H116.017V50H102.449ZM128.571 50C127.163 50 125.861 49.6587 124.667 48.976C123.515 48.2507 122.576 47.312 121.851 46.16C121.168 44.9653 120.827 43.664 120.827 42.256V20.624C120.827 19.216 121.168 17.936 121.851 16.784C122.576 15.5893 123.515 14.6507 124.667 13.968C125.861 13.2427 127.163 12.88 128.571 12.88H150.843C152.293 12.88 153.595 13.2427 154.747 13.968C155.941 14.6507 156.88 15.5893 157.562 16.784C158.288 17.936 158.651 19.216 158.651 20.624V34.064H126.075V42.256C126.075 42.9387 126.309 43.536 126.779 44.048C127.291 44.5173 127.888 44.752 128.571 44.752H158.651V50H128.571ZM126.075 28.816H153.339V20.624C153.339 19.9413 153.083 19.3653 152.571 18.896C152.101 18.384 151.525 18.128 150.843 18.128H128.571C127.888 18.128 127.291 18.384 126.779 18.896C126.309 19.3653 126.075 19.9413 126.075 20.624V28.816ZM172.691 50C171.283 50 169.982 49.6587 168.787 48.976C167.635 48.2507 166.696 47.312 165.971 46.16C165.288 44.9653 164.947 43.664 164.947 42.256V41.744H170.195V42.256C170.195 42.9387 170.43 43.536 170.899 44.048C171.411 44.5173 172.008 44.752 172.691 44.752H194.963C195.646 44.752 196.222 44.5173 196.691 44.048C197.203 43.536 197.459 42.9387 197.459 42.256V36.56C197.459 35.8773 197.203 35.3013 196.691 34.832C196.222 34.32 195.646 34.064 194.963 34.064H172.691C171.283 34.064 169.982 33.7227 168.787 33.04C167.635 32.3147 166.696 31.376 165.971 30.224C165.288 29.0293 164.947 27.728 164.947 26.32V20.624C164.947 19.216 165.288 17.936 165.971 16.784C166.696 15.5893 167.635 14.6507 168.787 13.968C169.982 13.2427 171.283 12.88 172.691 12.88H194.963C196.414 12.88 197.715 13.2427 198.867 13.968C200.062 14.6507 201 15.5893 201.683 16.784C202.408 17.936 202.771 19.216 202.771 20.624V21.136H197.459V20.624C197.459 19.9413 197.203 19.3653 196.691 18.896C196.222 18.384 195.646 18.128 194.963 18.128H172.691C172.008 18.128 171.411 18.384 170.899 18.896C170.43 19.3653 170.195 19.9413 170.195 20.624V26.32C170.195 27.0027 170.43 27.6 170.899 28.112C171.411 28.5813 172.008 28.816 172.691 28.816H194.963C196.414 28.816 197.715 29.1787 198.867 29.904C200.062 30.5867 201 31.5253 201.683 32.72C202.408 33.872 202.771 35.152 202.771 36.56V42.256C202.771 43.664 202.408 44.9653 201.683 46.16C201 47.312 200.062 48.2507 198.867 48.976C197.715 49.6587 196.414 50 194.963 50H172.691ZM216.886 50C215.435 50 214.113 49.6587 212.918 48.976C211.766 48.2507 210.849 47.312 210.166 46.16C209.483 44.9653 209.142 43.664 209.142 42.256V0.719997H214.39V12.88H230.454V18.128H214.39V42.256C214.39 42.9387 214.625 43.536 215.094 44.048C215.606 44.5173 216.203 44.752 216.886 44.752H230.454V50H216.886ZM253.022 50V3.92H260.126L293.918 44.112V3.92H299.102V50H291.998L258.206 9.808V50H253.022ZM313.696 50C312.288 50 310.986 49.6587 309.792 48.976C308.64 48.2507 307.701 47.312 306.976 46.16C306.293 44.9653 305.952 43.664 305.952 42.256V20.624C305.952 19.216 306.293 17.936 306.976 16.784C307.701 15.5893 308.64 14.6507 309.792 13.968C310.986 13.2427 312.288 12.88 313.696 12.88H335.968C337.418 12.88 338.72 13.2427 339.872 13.968C341.066 14.6507 342.005 15.5893 342.688 16.784C343.413 17.936 343.776 19.216 343.776 20.624V34.064H311.2V42.256C311.2 42.9387 311.434 43.536 311.904 44.048C312.416 44.5173 313.013 44.752 313.696 44.752H343.776V50H313.696ZM311.2 28.816H338.464V20.624C338.464 19.9413 338.208 19.3653 337.696 18.896C337.226 18.384 336.65 18.128 335.968 18.128H313.696C313.013 18.128 312.416 18.384 311.904 18.896C311.434 19.3653 311.2 19.9413 311.2 20.624V28.816ZM361.895 50L347.303 12.88H352.935L364.199 40.528L376.167 12.88H383.079L395.815 40.464L406.311 12.88H412.007L397.991 50H393.447L379.623 19.344L366.503 50H361.895ZM423.504 50C422.096 50 420.794 49.6587 419.6 48.976C418.448 48.2507 417.509 47.312 416.784 46.16C416.101 44.9653 415.76 43.664 415.76 42.256V41.744H421.008V42.256C421.008 42.9387 421.242 43.536 421.712 44.048C422.224 44.5173 422.821 44.752 423.504 44.752H445.776C446.458 44.752 447.034 44.5173 447.504 44.048C448.016 43.536 448.272 42.9387 448.272 42.256V36.56C448.272 35.8773 448.016 35.3013 447.504 34.832C447.034 34.32 446.458 34.064 445.776 34.064H423.504C422.096 34.064 420.794 33.7227 419.6 33.04C418.448 32.3147 417.509 31.376 416.784 30.224C416.101 29.0293 415.76 27.728 415.76 26.32V20.624C415.76 19.216 416.101 17.936 416.784 16.784C417.509 15.5893 418.448 14.6507 419.6 13.968C420.794 13.2427 422.096 12.88 423.504 12.88H445.776C447.226 12.88 448.528 13.2427 449.68 13.968C450.874 14.6507 451.813 15.5893 452.496 16.784C453.221 17.936 453.584 19.216 453.584 20.624V21.136H448.272V20.624C448.272 19.9413 448.016 19.3653 447.504 18.896C447.034 18.384 446.458 18.128 445.776 18.128H423.504C422.821 18.128 422.224 18.384 421.712 18.896C421.242 19.3653 421.008 19.9413 421.008 20.624V26.32C421.008 27.0027 421.242 27.6 421.712 28.112C422.224 28.5813 422.821 28.816 423.504 28.816H445.776C447.226 28.816 448.528 29.1787 449.68 29.904C450.874 30.5867 451.813 31.5253 452.496 32.72C453.221 33.872 453.584 35.152 453.584 36.56V42.256C453.584 43.664 453.221 44.9653 452.496 46.16C451.813 47.312 450.874 48.2507 449.68 48.976C448.528 49.6587 447.226 50 445.776 50H423.504ZM485.136 50C483.728 50 482.427 49.6587 481.232 48.976C480.08 48.2507 479.141 47.312 478.416 46.16C477.733 44.9653 477.392 43.664 477.392 42.256V28.496C477.392 27.5573 477.968 26.64 479.12 25.744C480.272 24.8053 481.808 24.336 483.728 24.336C481.296 22.5013 480.08 20.4533 480.08 18.192V11.792C480.08 10.3413 480.421 9.04 481.104 7.888C481.829 6.69333 482.768 5.75466 483.92 5.072C485.115 4.34666 486.416 3.984 487.824 3.984H514.128C515.323 3.984 516.453 4.304 517.52 4.944C518.587 5.54133 519.504 6.352 520.272 7.376C521.083 8.35733 521.637 9.40267 521.936 10.512V14.032H516.624V11.856C516.624 11.1733 516.368 10.5973 515.856 10.128C515.387 9.616 514.811 9.36 514.128 9.36H487.824C487.141 9.36 486.544 9.616 486.032 10.128C485.563 10.5973 485.328 11.1733 485.328 11.856V20.752L518.672 37.584V28.688H523.92V39.312L532.496 44.368V48.976L523.728 44.048C523.045 45.7973 522.021 47.2267 520.656 48.336C519.291 49.4453 517.797 50 516.176 50H485.136ZM485.136 44.752H516.176C516.603 44.752 517.051 44.5387 517.52 44.112C518.032 43.6853 518.437 43.1307 518.736 42.448L486.096 26H485.136C484.453 26 483.856 26.256 483.344 26.768C482.875 27.2373 482.64 27.8133 482.64 28.496V42.256C482.64 42.9387 482.875 43.536 483.344 44.048C483.856 44.5173 484.453 44.752 485.136 44.752Z" fill="white"/>
</svg>
