<svg width="534" height="49" viewBox="0 0 534 49" fill="none" xmlns="http://www.w3.org/2000/svg">
<path d="M7.962 49C6.576 49 5.295 48.664 4.119 47.992C2.985 47.32 2.082 46.417 1.41 45.283C0.738 44.107 0.402 42.826 0.402 41.44V11.2C0.402 9.814 0.738 8.554 1.41 7.42C2.082 6.244 2.985 5.32 4.119 4.648C5.295 3.976 6.576 3.64 7.962 3.64H38.202C39.588 3.64 40.848 3.976 41.982 4.648C43.158 5.32 44.082 6.244 44.754 7.42C45.426 8.554 45.762 9.814 45.762 11.2V41.44C45.762 42.826 45.426 44.107 44.754 45.283C44.082 46.417 43.158 47.32 41.982 47.992C40.848 48.664 39.588 49 38.202 49H7.962ZM7.962 43.897H38.202C38.874 43.897 39.441 43.666 39.903 43.204C40.407 42.7 40.659 42.112 40.659 41.44V11.2C40.659 10.528 40.407 9.961 39.903 9.499C39.441 8.995 38.874 8.743 38.202 8.743H7.962C7.29 8.743 6.702 8.995 6.198 9.499C5.736 9.961 5.505 10.528 5.505 11.2V41.44C5.505 42.112 5.736 42.7 6.198 43.204C6.702 43.666 7.29 43.897 7.962 43.897ZM65.7409 49L51.3769 12.46H56.9209L68.0089 39.676L79.7899 12.46H86.5939L99.1309 39.613L109.463 12.46H115.07L101.273 49H96.7999L83.1919 18.823L70.2769 49H65.7409ZM120.065 49V12.46H149.675C151.061 12.46 152.321 12.817 153.455 13.531C154.631 14.203 155.555 15.127 156.227 16.303C156.941 17.437 157.298 18.697 157.298 20.083V49H152.132V20.083C152.132 19.411 151.88 18.844 151.376 18.382C150.914 17.878 150.347 17.626 149.675 17.626H127.751C127.079 17.626 126.491 17.878 125.987 18.382C125.483 18.844 125.231 19.411 125.231 20.083V49H120.065ZM188.782 49C187.396 49 186.115 48.664 184.939 47.992C183.805 47.32 182.902 46.417 182.23 45.283C181.558 44.107 181.222 42.826 181.222 41.44V11.2C181.222 9.814 181.558 8.554 182.23 7.42C182.902 6.244 183.805 5.32 184.939 4.648C186.115 3.976 187.396 3.64 188.782 3.64H226.456V8.743H188.782C188.11 8.743 187.522 8.995 187.018 9.499C186.556 9.961 186.325 10.528 186.325 11.2V41.44C186.325 42.112 186.556 42.7 187.018 43.204C187.522 43.666 188.11 43.897 188.782 43.897H226.456V49H188.782ZM232.899 49V0.489997H238.065V12.46H262.509C263.895 12.46 265.155 12.817 266.289 13.531C267.465 14.203 268.389 15.127 269.061 16.303C269.775 17.437 270.132 18.697 270.132 20.083V49H264.966V20.083C264.966 19.411 264.714 18.844 264.21 18.382C263.748 17.878 263.181 17.626 262.509 17.626H240.585C239.913 17.626 239.325 17.878 238.821 18.382C238.317 18.844 238.065 19.411 238.065 20.083V49H232.899ZM282.786 49C281.4 49 280.119 48.664 278.943 47.992C277.809 47.278 276.885 46.354 276.171 45.22C275.499 44.044 275.163 42.763 275.163 41.377V28.147H307.167V20.083C307.167 19.411 306.915 18.844 306.411 18.382C305.949 17.878 305.382 17.626 304.71 17.626H275.163V12.46H304.71C306.138 12.46 307.419 12.817 308.553 13.531C309.729 14.203 310.653 15.127 311.325 16.303C312.039 17.437 312.396 18.697 312.396 20.083V49H282.786ZM282.786 43.834H307.167V33.313H280.329V41.377C280.329 42.049 280.56 42.637 281.022 43.141C281.526 43.603 282.114 43.834 282.786 43.834ZM318.598 49V20.083C318.598 18.697 318.934 17.437 319.606 16.303C320.32 15.127 321.244 14.203 322.378 13.531C323.554 12.817 324.835 12.46 326.221 12.46H346.759V17.626H326.221C325.549 17.626 324.961 17.878 324.457 18.382C323.995 18.844 323.764 19.411 323.764 20.083V49H318.598ZM358.46 49C357.074 49 355.793 48.664 354.617 47.992C353.483 47.278 352.559 46.354 351.845 45.22C351.173 44.044 350.837 42.763 350.837 41.377V28.147H382.841V20.083C382.841 19.411 382.589 18.844 382.085 18.382C381.623 17.878 381.056 17.626 380.384 17.626H350.837V12.46H380.384C381.812 12.46 383.093 12.817 384.227 13.531C385.403 14.203 386.327 15.127 386.999 16.303C387.713 17.437 388.07 18.697 388.07 20.083V49H358.46ZM358.46 43.834H382.841V33.313H356.003V41.377C356.003 42.049 356.234 42.637 356.696 43.141C357.2 43.603 357.788 43.834 358.46 43.834ZM401.524 49C400.138 49 398.857 48.664 397.681 47.992C396.547 47.278 395.623 46.354 394.909 45.22C394.237 44.044 393.901 42.763 393.901 41.377V20.083C393.901 18.697 394.237 17.437 394.909 16.303C395.623 15.127 396.547 14.203 397.681 13.531C398.857 12.817 400.138 12.46 401.524 12.46H431.008V17.626H401.524C400.852 17.626 400.264 17.878 399.76 18.382C399.298 18.844 399.067 19.411 399.067 20.083V41.377C399.067 42.049 399.298 42.637 399.76 43.141C400.264 43.603 400.852 43.834 401.524 43.834H431.134V49H401.524ZM443.856 49C442.428 49 441.126 48.664 439.95 47.992C438.816 47.278 437.913 46.354 437.241 45.22C436.569 44.044 436.233 42.763 436.233 41.377V0.489997H441.399V12.46H457.212V17.626H441.399V41.377C441.399 42.049 441.63 42.637 442.092 43.141C442.596 43.603 443.184 43.834 443.856 43.834H457.212V49H443.856ZM469.569 49C468.183 49 466.902 48.664 465.726 47.992C464.592 47.278 463.668 46.354 462.954 45.22C462.282 44.044 461.946 42.763 461.946 41.377V20.083C461.946 18.697 462.282 17.437 462.954 16.303C463.668 15.127 464.592 14.203 465.726 13.531C466.902 12.817 468.183 12.46 469.569 12.46H491.493C492.921 12.46 494.202 12.817 495.336 13.531C496.512 14.203 497.436 15.127 498.108 16.303C498.822 17.437 499.179 18.697 499.179 20.083V33.313H467.112V41.377C467.112 42.049 467.343 42.637 467.805 43.141C468.309 43.603 468.897 43.834 469.569 43.834H499.179V49H469.569ZM467.112 28.147H493.95V20.083C493.95 19.411 493.698 18.844 493.194 18.382C492.732 17.878 492.165 17.626 491.493 17.626H469.569C468.897 17.626 468.309 17.878 467.805 18.382C467.343 18.844 467.112 19.411 467.112 20.083V28.147ZM505.322 49V20.083C505.322 18.697 505.658 17.437 506.33 16.303C507.044 15.127 507.968 14.203 509.102 13.531C510.278 12.817 511.559 12.46 512.945 12.46H533.483V17.626H512.945C512.273 17.626 511.685 17.878 511.181 18.382C510.719 18.844 510.488 19.411 510.488 20.083V49H505.322Z" fill="white"/>
</svg>
