<svg width="668" height="139" viewBox="0 0 668 139" fill="none" xmlns="http://www.w3.org/2000/svg">
<path d="M20.76 50V9.104H0.28V3.92H46.36V9.104H25.944V50H20.76ZM51.0185 50V0.719997H56.2665V12.88H81.0985C82.5065 12.88 83.7865 13.2427 84.9385 13.968C86.1332 14.6507 87.0718 15.5893 87.7545 16.784C88.4798 17.936 88.8425 19.216 88.8425 20.624V50H83.5945V20.624C83.5945 19.9413 83.3385 19.3653 82.8265 18.896C82.3572 18.384 81.7812 18.128 81.0985 18.128H58.8265C58.1438 18.128 57.5465 18.384 57.0345 18.896C56.5225 19.3653 56.2665 19.9413 56.2665 20.624V50H51.0185ZM101.321 50C99.9125 50 98.6112 49.6587 97.4165 48.976C96.2645 48.2507 95.3258 47.312 94.6005 46.16C93.9178 44.9653 93.5765 43.664 93.5765 42.256V20.624C93.5765 19.216 93.9178 17.936 94.6005 16.784C95.3258 15.5893 96.2645 14.6507 97.4165 13.968C98.6112 13.2427 99.9125 12.88 101.321 12.88H123.593C125.043 12.88 126.345 13.2427 127.497 13.968C128.691 14.6507 129.63 15.5893 130.312 16.784C131.038 17.936 131.401 19.216 131.401 20.624V34.064H98.8245V42.256C98.8245 42.9387 99.0592 43.536 99.5285 44.048C100.041 44.5173 100.638 44.752 101.321 44.752H131.401V50H101.321ZM98.8245 28.816H126.089V20.624C126.089 19.9413 125.833 19.3653 125.321 18.896C124.851 18.384 124.275 18.128 123.593 18.128H101.321C100.638 18.128 100.041 18.384 99.5285 18.896C99.0592 19.3653 98.8245 19.9413 98.8245 20.624V28.816ZM155.647 50V3.92H162.751L196.543 44.112V3.92H201.727V50H194.623L160.831 9.808V50H155.647ZM216.321 50C214.913 50 213.611 49.6587 212.417 48.976C211.265 48.2507 210.326 47.312 209.601 46.16C208.918 44.9653 208.577 43.664 208.577 42.256V20.624C208.577 19.216 208.918 17.936 209.601 16.784C210.326 15.5893 211.265 14.6507 212.417 13.968C213.611 13.2427 214.913 12.88 216.321 12.88H238.593C240.043 12.88 241.345 13.2427 242.497 13.968C243.691 14.6507 244.63 15.5893 245.312 16.784C246.038 17.936 246.401 19.216 246.401 20.624V34.064H213.825V42.256C213.825 42.9387 214.059 43.536 214.529 44.048C215.041 44.5173 215.638 44.752 216.321 44.752H246.401V50H216.321ZM213.825 28.816H241.089V20.624C241.089 19.9413 240.833 19.3653 240.321 18.896C239.851 18.384 239.275 18.128 238.593 18.128H216.321C215.638 18.128 215.041 18.384 214.529 18.896C214.059 19.3653 213.825 19.9413 213.825 20.624V28.816ZM264.52 50L249.928 12.88H255.56L266.824 40.528L278.792 12.88H285.704L298.44 40.464L308.936 12.88H314.632L300.616 50H296.072L282.248 19.344L269.128 50H264.52ZM337.4 50V3.92H379.448V9.104H342.584V24.336H372.216V29.584H342.584V44.816H379.448V50H337.4ZM386.016 50V20.624C386.016 19.216 386.357 17.936 387.04 16.784C387.765 15.5893 388.704 14.6507 389.856 13.968C391.05 13.2427 392.352 12.88 393.76 12.88H414.624V18.128H393.76C393.077 18.128 392.48 18.384 391.968 18.896C391.498 19.3653 391.264 19.9413 391.264 20.624V50H386.016ZM426.51 50C425.102 50 423.8 49.6587 422.606 48.976C421.454 48.2507 420.515 47.312 419.79 46.16C419.107 44.9653 418.766 43.664 418.766 42.256V28.816H451.278V20.624C451.278 19.9413 451.022 19.3653 450.51 18.896C450.04 18.384 449.464 18.128 448.782 18.128H418.766V12.88H448.782C450.232 12.88 451.534 13.2427 452.686 13.968C453.88 14.6507 454.819 15.5893 455.502 16.784C456.227 17.936 456.59 19.216 456.59 20.624V50H426.51ZM426.51 44.752H451.278V34.064H424.014V42.256C424.014 42.9387 424.248 43.536 424.718 44.048C425.23 44.5173 425.827 44.752 426.51 44.752ZM488.449 50C487.041 50 485.739 49.6587 484.545 48.976C483.393 48.2933 482.475 47.376 481.793 46.224C481.11 45.0293 480.769 43.728 480.769 42.32V11.6C480.769 10.192 481.11 8.912 481.793 7.76C482.475 6.56533 483.393 5.62666 484.545 4.944C485.739 4.26133 487.041 3.92 488.449 3.92H519.169C520.577 3.92 521.857 4.26133 523.009 4.944C524.203 5.62666 525.142 6.56533 525.825 7.76C526.507 8.912 526.849 10.192 526.849 11.6V42.32C526.849 43.728 526.507 45.0293 525.825 46.224C525.142 47.376 524.203 48.2933 523.009 48.976C521.857 49.6587 520.577 50 519.169 50H488.449ZM488.449 44.816H519.169C519.851 44.816 520.427 44.5813 520.897 44.112C521.409 43.6 521.665 43.0027 521.665 42.32V11.6C521.665 10.9173 521.409 10.3413 520.897 9.872C520.427 9.36 519.851 9.104 519.169 9.104H488.449C487.766 9.104 487.169 9.36 486.657 9.872C486.187 10.3413 485.953 10.9173 485.953 11.6V42.32C485.953 43.0027 486.187 43.6 486.657 44.112C487.169 44.5813 487.766 44.816 488.449 44.816ZM533.705 50V8.464C533.705 7.01333 534.046 5.712 534.729 4.56C535.411 3.36533 536.329 2.42666 537.481 1.744C538.675 1.06133 539.998 0.719997 541.449 0.719997H555.017V5.968H541.449C540.766 5.968 540.169 6.224 539.657 6.736C539.187 7.20533 538.953 7.78133 538.953 8.464V12.88H555.017V18.128H538.953V50H533.705ZM10.264 124C8.856 124 7.55467 123.659 6.36 122.976C5.208 122.293 4.29067 121.376 3.608 120.224C2.92533 119.029 2.584 117.728 2.584 116.32V85.6C2.584 84.192 2.92533 82.912 3.608 81.76C4.29067 80.5653 5.208 79.6267 6.36 78.944C7.55467 78.2613 8.856 77.92 10.264 77.92H48.536V83.104H10.264C9.58133 83.104 8.984 83.36 8.472 83.872C8.00267 84.3413 7.768 84.9173 7.768 85.6V116.32C7.768 117.003 8.00267 117.6 8.472 118.112C8.984 118.581 9.58133 118.816 10.264 118.816H48.536V124H10.264ZM62.697 124C61.289 124 59.9877 123.659 58.793 122.976C57.641 122.251 56.7023 121.312 55.977 120.16C55.2943 118.965 54.953 117.664 54.953 116.256V74.72H60.201V116.256C60.201 116.939 60.4357 117.536 60.905 118.048C61.417 118.517 62.0143 118.752 62.697 118.752H68.969V124H62.697ZM81.3205 124C79.9125 124 78.6112 123.659 77.4165 122.976C76.2645 122.251 75.3258 121.312 74.6005 120.16C73.9178 118.965 73.5765 117.664 73.5765 116.256V94.624C73.5765 93.216 73.9178 91.936 74.6005 90.784C75.3258 89.5893 76.2645 88.6507 77.4165 87.968C78.6112 87.2427 79.9125 86.88 81.3205 86.88H103.593C105.043 86.88 106.345 87.2427 107.497 87.968C108.691 88.6507 109.63 89.5893 110.312 90.784C111.038 91.936 111.401 93.216 111.401 94.624V116.256C111.401 117.664 111.038 118.965 110.312 120.16C109.63 121.312 108.691 122.251 107.497 122.976C106.345 123.659 105.043 124 103.593 124H81.3205ZM81.3205 118.752H103.593C104.275 118.752 104.851 118.517 105.321 118.048C105.833 117.536 106.089 116.939 106.089 116.256V94.624C106.089 93.9413 105.833 93.3653 105.321 92.896C104.851 92.384 104.275 92.128 103.593 92.128H81.3205C80.6378 92.128 80.0405 92.384 79.5285 92.896C79.0592 93.3653 78.8245 93.9413 78.8245 94.624V116.256C78.8245 116.939 79.0592 117.536 79.5285 118.048C80.0405 118.517 80.6378 118.752 81.3205 118.752ZM124.261 124C122.853 124 121.552 123.659 120.357 122.976C119.205 122.251 118.266 121.312 117.541 120.16C116.858 118.965 116.517 117.664 116.517 116.256V86.88H121.765V116.256C121.765 116.939 122 117.536 122.469 118.048C122.981 118.517 123.578 118.752 124.261 118.752H146.533C147.216 118.752 147.813 118.517 148.325 118.048C148.837 117.536 149.093 116.939 149.093 116.256V86.88H154.341V116.256C154.341 117.664 153.978 118.965 153.253 120.16C152.57 121.312 151.632 122.251 150.437 122.976C149.285 123.659 147.984 124 146.533 124H124.261ZM167.53 124C166.079 124 164.757 123.659 163.562 122.976C162.41 122.251 161.471 121.312 160.746 120.16C160.063 118.965 159.722 117.664 159.722 116.256V94.624C159.722 93.216 160.063 91.936 160.746 90.784C161.471 89.5893 162.41 88.6507 163.562 87.968C164.757 87.2427 166.079 86.88 167.53 86.88H192.298V74.72H197.546V124H167.53ZM167.53 118.752H189.802C190.485 118.752 191.061 118.517 191.53 118.048C192.042 117.536 192.298 116.939 192.298 116.256V94.624C192.298 93.9413 192.042 93.3653 191.53 92.896C191.061 92.384 190.485 92.128 189.802 92.128H167.53C166.847 92.128 166.25 92.384 165.738 92.896C165.269 93.3653 165.034 93.9413 165.034 94.624V116.256C165.034 116.939 165.269 117.536 165.738 118.048C166.25 118.517 166.847 118.752 167.53 118.752ZM229.639 124C228.231 124 226.93 123.659 225.735 122.976C224.583 122.293 223.666 121.376 222.983 120.224C222.3 119.029 221.959 117.728 221.959 116.32V85.6C221.959 84.192 222.3 82.912 222.983 81.76C223.666 80.5653 224.583 79.6267 225.735 78.944C226.93 78.2613 228.231 77.92 229.639 77.92H260.359C261.767 77.92 263.047 78.2613 264.199 78.944C265.394 79.6267 266.332 80.5653 267.015 81.76C267.698 82.912 268.039 84.192 268.039 85.6V87.456H262.855V85.6C262.855 84.9173 262.599 84.3413 262.087 83.872C261.618 83.36 261.042 83.104 260.359 83.104H229.639C228.956 83.104 228.359 83.36 227.847 83.872C227.378 84.3413 227.143 84.9173 227.143 85.6V116.32C227.143 117.003 227.378 117.6 227.847 118.112C228.359 118.581 228.956 118.816 229.639 118.816H260.359C261.042 118.816 261.618 118.581 262.087 118.112C262.599 117.6 262.855 117.003 262.855 116.32V104.928H251.463V99.68H268.039V116.32C268.039 117.728 267.698 119.029 267.015 120.224C266.332 121.376 265.394 122.293 264.199 122.976C263.047 123.659 261.767 124 260.359 124H229.639ZM282.572 124C281.164 124 279.863 123.659 278.668 122.976C277.516 122.251 276.577 121.312 275.852 120.16C275.169 118.965 274.828 117.664 274.828 116.256V102.816H307.34V94.624C307.34 93.9413 307.084 93.3653 306.572 92.896C306.103 92.384 305.527 92.128 304.844 92.128H274.828V86.88H304.844C306.295 86.88 307.596 87.2427 308.748 87.968C309.943 88.6507 310.881 89.5893 311.564 90.784C312.289 91.936 312.652 93.216 312.652 94.624V124H282.572ZM282.572 118.752H307.34V108.064H280.076V116.256C280.076 116.939 280.311 117.536 280.78 118.048C281.292 118.517 281.889 118.752 282.572 118.752ZM318.144 124V86.88H367.168C368.618 86.88 369.92 87.2427 371.072 87.968C372.266 88.6507 373.205 89.5893 373.888 90.784C374.57 91.936 374.912 93.216 374.912 94.624V124H369.728V94.624C369.728 93.9413 369.472 93.3653 368.96 92.896C368.448 92.384 367.85 92.128 367.168 92.128H351.744C351.061 92.128 350.464 92.384 349.951 92.896C349.482 93.3653 349.248 93.9413 349.248 94.624V124H343.936V94.624C343.936 93.9413 343.68 93.3653 343.168 92.896C342.698 92.384 342.122 92.128 341.44 92.128H325.952C325.269 92.128 324.672 92.384 324.16 92.896C323.69 93.3653 323.456 93.9413 323.456 94.624V124H318.144ZM380.578 124V86.88H385.826V124H380.578ZM380.578 79.968V74.72H385.826V79.968H380.578ZM393.081 124V86.88H423.161C424.569 86.88 425.849 87.2427 427.001 87.968C428.196 88.6507 429.134 89.5893 429.817 90.784C430.542 91.936 430.905 93.216 430.905 94.624V124H425.657V94.624C425.657 93.9413 425.401 93.3653 424.889 92.896C424.42 92.384 423.844 92.128 423.161 92.128H400.889C400.206 92.128 399.609 92.384 399.097 92.896C398.585 93.3653 398.329 93.9413 398.329 94.624V124H393.081ZM443.66 138.656V133.344H466.828C467.51 133.344 468.086 133.088 468.556 132.576C469.068 132.107 469.324 131.531 469.324 130.848V124H444.556C443.148 124 441.846 123.659 440.652 122.976C439.5 122.251 438.561 121.312 437.836 120.16C437.153 118.965 436.812 117.664 436.812 116.256V94.624C436.812 93.216 437.153 91.936 437.836 90.784C438.561 89.5893 439.5 88.6507 440.652 87.968C441.846 87.2427 443.148 86.88 444.556 86.88H466.828C468.278 86.88 469.58 87.2427 470.732 87.968C471.926 88.6507 472.865 89.5893 473.548 90.784C474.23 91.936 474.572 93.216 474.572 94.624V130.848C474.572 132.299 474.23 133.6 473.548 134.752C472.865 135.947 471.926 136.885 470.732 137.568C469.58 138.293 468.278 138.656 466.828 138.656H443.66ZM444.556 118.752H466.828C467.51 118.752 468.086 118.517 468.556 118.048C469.068 117.536 469.324 116.939 469.324 116.256V94.624C469.324 93.9413 469.068 93.3653 468.556 92.896C468.086 92.384 467.51 92.128 466.828 92.128H444.556C443.873 92.128 443.276 92.384 442.764 92.896C442.294 93.3653 442.06 93.9413 442.06 94.624V116.256C442.06 116.939 442.294 117.536 442.764 118.048C443.276 118.517 443.873 118.752 444.556 118.752ZM498.961 124V77.92H504.145V98.336H540.945V77.92H546.193V124H540.945V103.584H504.145V124H498.961ZM560.758 124C559.35 124 558.049 123.659 556.854 122.976C555.702 122.251 554.763 121.312 554.038 120.16C553.355 118.965 553.014 117.664 553.014 116.256V94.624C553.014 93.216 553.355 91.936 554.038 90.784C554.763 89.5893 555.702 88.6507 556.854 87.968C558.049 87.2427 559.35 86.88 560.758 86.88H583.03C584.481 86.88 585.782 87.2427 586.934 87.968C588.129 88.6507 589.067 89.5893 589.75 90.784C590.475 91.936 590.838 93.216 590.838 94.624V108.064H558.262V116.256C558.262 116.939 558.497 117.536 558.966 118.048C559.478 118.517 560.075 118.752 560.758 118.752H590.838V124H560.758ZM558.262 102.816H585.526V94.624C585.526 93.9413 585.27 93.3653 584.758 92.896C584.289 92.384 583.713 92.128 583.03 92.128H560.758C560.075 92.128 559.478 92.384 558.966 92.896C558.497 93.3653 558.262 93.9413 558.262 94.624V102.816ZM597.078 124V94.624C597.078 93.216 597.419 91.936 598.102 90.784C598.827 89.5893 599.766 88.6507 600.918 87.968C602.113 87.2427 603.414 86.88 604.822 86.88H625.686V92.128H604.822C604.139 92.128 603.542 92.384 603.03 92.896C602.561 93.3653 602.326 93.9413 602.326 94.624V124H597.078ZM637.508 124C636.1 124 634.799 123.659 633.604 122.976C632.452 122.251 631.513 121.312 630.788 120.16C630.105 118.965 629.764 117.664 629.764 116.256V94.624C629.764 93.216 630.105 91.936 630.788 90.784C631.513 89.5893 632.452 88.6507 633.604 87.968C634.799 87.2427 636.1 86.88 637.508 86.88H659.78C661.231 86.88 662.532 87.2427 663.684 87.968C664.879 88.6507 665.817 89.5893 666.5 90.784C667.225 91.936 667.588 93.216 667.588 94.624V108.064H635.012V116.256C635.012 116.939 635.247 117.536 635.716 118.048C636.228 118.517 636.825 118.752 637.508 118.752H667.588V124H637.508ZM635.012 102.816H662.276V94.624C662.276 93.9413 662.02 93.3653 661.508 92.896C661.039 92.384 660.463 92.128 659.78 92.128H637.508C636.825 92.128 636.228 92.384 635.716 92.896C635.247 93.3653 635.012 93.9413 635.012 94.624V102.816Z" fill="white"/>
</svg>
