<svg width="703" height="139" viewBox="0 0 703 139" fill="none" xmlns="http://www.w3.org/2000/svg">
<path d="M21.2008 50V32.656L0.0167501 3.92H5.96875L23.8248 26.448L41.4888 3.92H47.5688L26.3848 32.656V50H21.2008ZM52.9143 50C51.5063 50 50.2049 49.6587 49.0103 48.976C47.8583 48.2507 46.9196 47.312 46.1943 46.16C45.5116 44.9653 45.1703 43.664 45.1703 42.256V20.624C45.1703 19.216 45.5116 17.936 46.1943 16.784C46.9196 15.5893 47.8583 14.6507 49.0103 13.968C50.2049 13.2427 51.5063 12.88 52.9143 12.88H75.1863C76.6369 12.88 77.9383 13.2427 79.0903 13.968C80.2849 14.6507 81.2236 15.5893 81.9062 16.784C82.6316 17.936 82.9943 19.216 82.9943 20.624V42.256C82.9943 43.664 82.6316 44.9653 81.9062 46.16C81.2236 47.312 80.2849 48.2507 79.0903 48.976C77.9383 49.6587 76.6369 50 75.1863 50H52.9143ZM52.9143 44.752H75.1863C75.8689 44.752 76.4449 44.5173 76.9143 44.048C77.4263 43.536 77.6823 42.9387 77.6823 42.256V20.624C77.6823 19.9413 77.4263 19.3653 76.9143 18.896C76.4449 18.384 75.8689 18.128 75.1863 18.128H52.9143C52.2316 18.128 51.6343 18.384 51.1223 18.896C50.6529 19.3653 50.4183 19.9413 50.4183 20.624V42.256C50.4183 42.9387 50.6529 43.536 51.1223 44.048C51.6343 44.5173 52.2316 44.752 52.9143 44.752ZM95.8548 50C94.4468 50 93.1454 49.6587 91.9508 48.976C90.7988 48.2507 89.8601 47.312 89.1348 46.16C88.4521 44.9653 88.1108 43.664 88.1108 42.256V12.88H93.3588V42.256C93.3588 42.9387 93.5934 43.536 94.0628 44.048C94.5748 44.5173 95.1721 44.752 95.8548 44.752H118.127C118.809 44.752 119.407 44.5173 119.919 44.048C120.431 43.536 120.687 42.9387 120.687 42.256V12.88H125.935V42.256C125.935 43.664 125.572 44.9653 124.847 46.16C124.164 47.312 123.225 48.2507 122.031 48.976C120.879 49.6587 119.577 50 118.127 50H95.8548ZM132.547 50V20.624C132.547 19.216 132.888 17.936 133.571 16.784C134.296 15.5893 135.235 14.6507 136.387 13.968C137.581 13.2427 138.883 12.88 140.291 12.88H161.155V18.128H140.291C139.608 18.128 139.011 18.384 138.499 18.896C138.029 19.3653 137.795 19.9413 137.795 20.624V50H132.547ZM190.542 50C189.134 50 187.833 49.6587 186.638 48.976C185.486 48.2933 184.569 47.376 183.886 46.224C183.204 45.0293 182.862 43.728 182.862 42.32V11.6C182.862 10.192 183.204 8.912 183.886 7.76C184.569 6.56533 185.486 5.62666 186.638 4.944C187.833 4.26133 189.134 3.92 190.542 3.92H221.262C222.67 3.92 223.95 4.26133 225.102 4.944C226.297 5.62666 227.236 6.56533 227.918 7.76C228.601 8.912 228.942 10.192 228.942 11.6V42.32C228.942 43.728 228.601 45.0293 227.918 46.224C227.236 47.376 226.297 48.2933 225.102 48.976C223.95 49.6587 222.67 50 221.262 50H190.542ZM190.542 44.816H221.262C221.945 44.816 222.521 44.5813 222.99 44.112C223.502 43.6 223.758 43.0027 223.758 42.32V11.6C223.758 10.9173 223.502 10.3413 222.99 9.872C222.521 9.36 221.945 9.104 221.262 9.104H190.542C189.86 9.104 189.262 9.36 188.75 9.872C188.281 10.3413 188.046 10.9173 188.046 11.6V42.32C188.046 43.0027 188.281 43.6 188.75 44.112C189.262 44.5813 189.86 44.816 190.542 44.816ZM235.862 50V12.88H265.942C267.35 12.88 268.63 13.2427 269.782 13.968C270.977 14.6507 271.916 15.5893 272.598 16.784C273.324 17.936 273.686 19.216 273.686 20.624V50H268.438V20.624C268.438 19.9413 268.182 19.3653 267.67 18.896C267.201 18.384 266.625 18.128 265.942 18.128H243.67C242.988 18.128 242.39 18.384 241.878 18.896C241.366 19.3653 241.11 19.9413 241.11 20.624V50H235.862ZM287.977 50C286.569 50 285.267 49.6587 284.073 48.976C282.921 48.2507 281.982 47.312 281.257 46.16C280.574 44.9653 280.233 43.664 280.233 42.256V20.624C280.233 19.216 280.574 17.936 281.257 16.784C281.982 15.5893 282.921 14.6507 284.073 13.968C285.267 13.2427 286.569 12.88 287.977 12.88H310.249C311.699 12.88 313.001 13.2427 314.153 13.968C315.347 14.6507 316.286 15.5893 316.969 16.784C317.694 17.936 318.057 19.216 318.057 20.624V34.064H285.481V42.256C285.481 42.9387 285.715 43.536 286.185 44.048C286.697 44.5173 287.294 44.752 287.977 44.752H318.057V50H287.977ZM285.481 28.816H312.745V20.624C312.745 19.9413 312.489 19.3653 311.977 18.896C311.507 18.384 310.931 18.128 310.249 18.128H287.977C287.294 18.128 286.697 18.384 286.185 18.896C285.715 19.3653 285.481 19.9413 285.481 20.624V28.816ZM349.663 50C348.255 50 346.953 49.6587 345.759 48.976C344.607 48.2933 343.689 47.376 343.007 46.224C342.324 45.0293 341.983 43.728 341.983 42.32V40.528H347.167V42.32C347.167 43.0027 347.401 43.6 347.871 44.112C348.383 44.5813 348.98 44.816 349.663 44.816H380.383C381.065 44.816 381.641 44.5813 382.111 44.112C382.623 43.6 382.879 43.0027 382.879 42.32V32.016C382.879 31.3333 382.623 30.7573 382.111 30.288C381.641 29.8187 381.065 29.584 380.383 29.584H349.663C348.255 29.584 346.953 29.2427 345.759 28.56C344.607 27.8347 343.689 26.896 343.007 25.744C342.324 24.592 341.983 23.312 341.983 21.904V11.6C341.983 10.192 342.324 8.912 343.007 7.76C343.689 6.56533 344.607 5.62666 345.759 4.944C346.953 4.26133 348.255 3.92 349.663 3.92H380.383C381.791 3.92 383.071 4.26133 384.223 4.944C385.417 5.62666 386.356 6.56533 387.039 7.76C387.721 8.912 388.063 10.192 388.063 11.6V13.392H382.879V11.6C382.879 10.9173 382.623 10.3413 382.111 9.872C381.641 9.36 381.065 9.104 380.383 9.104H349.663C348.98 9.104 348.383 9.36 347.871 9.872C347.401 10.3413 347.167 10.9173 347.167 11.6V21.904C347.167 22.5867 347.401 23.1627 347.871 23.632C348.383 24.1013 348.98 24.336 349.663 24.336H380.383C381.791 24.336 383.071 24.6987 384.223 25.424C385.417 26.1067 386.356 27.024 387.039 28.176C387.721 29.328 388.063 30.608 388.063 32.016V42.32C388.063 43.728 387.721 45.0293 387.039 46.224C386.356 47.376 385.417 48.2933 384.223 48.976C383.071 49.6587 381.791 50 380.383 50H349.663ZM402.48 50C401.029 50 399.706 49.6587 398.512 48.976C397.36 48.2507 396.442 47.312 395.76 46.16C395.077 44.9653 394.736 43.664 394.736 42.256V0.719997H399.984V12.88H416.048V18.128H399.984V42.256C399.984 42.9387 400.218 43.536 400.688 44.048C401.2 44.5173 401.797 44.752 402.48 44.752H416.048V50H402.48ZM428.602 50C427.194 50 425.892 49.6587 424.698 48.976C423.546 48.2507 422.607 47.312 421.882 46.16C421.199 44.9653 420.858 43.664 420.858 42.256V20.624C420.858 19.216 421.199 17.936 421.882 16.784C422.607 15.5893 423.546 14.6507 424.698 13.968C425.892 13.2427 427.194 12.88 428.602 12.88H450.874C452.324 12.88 453.626 13.2427 454.778 13.968C455.972 14.6507 456.911 15.5893 457.594 16.784C458.319 17.936 458.682 19.216 458.682 20.624V42.256C458.682 43.664 458.319 44.9653 457.594 46.16C456.911 47.312 455.972 48.2507 454.778 48.976C453.626 49.6587 452.324 50 450.874 50H428.602ZM428.602 44.752H450.874C451.556 44.752 452.132 44.5173 452.602 44.048C453.114 43.536 453.37 42.9387 453.37 42.256V20.624C453.37 19.9413 453.114 19.3653 452.602 18.896C452.132 18.384 451.556 18.128 450.874 18.128H428.602C427.919 18.128 427.322 18.384 426.81 18.896C426.34 19.3653 426.106 19.9413 426.106 20.624V42.256C426.106 42.9387 426.34 43.536 426.81 44.048C427.322 44.5173 427.919 44.752 428.602 44.752ZM465.362 64.72V12.88H495.442C496.85 12.88 498.13 13.2427 499.282 13.968C500.477 14.6507 501.416 15.5893 502.098 16.784C502.824 17.936 503.186 19.216 503.186 20.624V42.256C503.186 43.664 502.824 44.9653 502.098 46.16C501.416 47.312 500.477 48.2507 499.282 48.976C498.13 49.6587 496.85 50 495.442 50H470.61V64.72H465.362ZM473.17 44.752H495.442C496.125 44.752 496.701 44.5173 497.17 44.048C497.682 43.536 497.938 42.9387 497.938 42.256V20.624C497.938 19.9413 497.682 19.3653 497.17 18.896C496.701 18.384 496.125 18.128 495.442 18.128H473.17C472.488 18.128 471.89 18.384 471.378 18.896C470.866 19.3653 470.61 19.9413 470.61 20.624V42.256C470.61 42.9387 470.866 43.536 471.378 44.048C471.89 44.5173 472.488 44.752 473.17 44.752ZM532.788 50C531.38 50 530.078 49.6587 528.884 48.976C527.732 48.2933 526.814 47.376 526.132 46.224C525.449 45.0293 525.108 43.728 525.108 42.32V40.528H530.292V42.32C530.292 43.0027 530.526 43.6 530.996 44.112C531.508 44.5813 532.105 44.816 532.788 44.816H563.508C564.19 44.816 564.766 44.5813 565.236 44.112C565.748 43.6 566.004 43.0027 566.004 42.32V32.016C566.004 31.3333 565.748 30.7573 565.236 30.288C564.766 29.8187 564.19 29.584 563.508 29.584H532.788C531.38 29.584 530.078 29.2427 528.884 28.56C527.732 27.8347 526.814 26.896 526.132 25.744C525.449 24.592 525.108 23.312 525.108 21.904V11.6C525.108 10.192 525.449 8.912 526.132 7.76C526.814 6.56533 527.732 5.62666 528.884 4.944C530.078 4.26133 531.38 3.92 532.788 3.92H563.508C564.916 3.92 566.196 4.26133 567.348 4.944C568.542 5.62666 569.481 6.56533 570.164 7.76C570.846 8.912 571.188 10.192 571.188 11.6V13.392H566.004V11.6C566.004 10.9173 565.748 10.3413 565.236 9.872C564.766 9.36 564.19 9.104 563.508 9.104H532.788C532.105 9.104 531.508 9.36 530.996 9.872C530.526 10.3413 530.292 10.9173 530.292 11.6V21.904C530.292 22.5867 530.526 23.1627 530.996 23.632C531.508 24.1013 532.105 24.336 532.788 24.336H563.508C564.916 24.336 566.196 24.6987 567.348 25.424C568.542 26.1067 569.481 27.024 570.164 28.176C570.846 29.328 571.188 30.608 571.188 32.016V42.32C571.188 43.728 570.846 45.0293 570.164 46.224C569.481 47.376 568.542 48.2933 567.348 48.976C566.196 49.6587 564.916 50 563.508 50H532.788ZM577.925 50V0.719997H583.173V12.88H608.005C609.413 12.88 610.693 13.2427 611.845 13.968C613.039 14.6507 613.978 15.5893 614.661 16.784C615.386 17.936 615.749 19.216 615.749 20.624V50H610.501V20.624C610.501 19.9413 610.245 19.3653 609.733 18.896C609.263 18.384 608.687 18.128 608.005 18.128H585.733C585.05 18.128 584.453 18.384 583.941 18.896C583.429 19.3653 583.173 19.9413 583.173 20.624V50H577.925ZM628.227 50C626.819 50 625.517 49.6587 624.323 48.976C623.171 48.2507 622.232 47.312 621.507 46.16C620.824 44.9653 620.483 43.664 620.483 42.256V20.624C620.483 19.216 620.824 17.936 621.507 16.784C622.232 15.5893 623.171 14.6507 624.323 13.968C625.517 13.2427 626.819 12.88 628.227 12.88H650.499C651.949 12.88 653.251 13.2427 654.403 13.968C655.597 14.6507 656.536 15.5893 657.219 16.784C657.944 17.936 658.307 19.216 658.307 20.624V42.256C658.307 43.664 657.944 44.9653 657.219 46.16C656.536 47.312 655.597 48.2507 654.403 48.976C653.251 49.6587 651.949 50 650.499 50H628.227ZM628.227 44.752H650.499C651.181 44.752 651.757 44.5173 652.227 44.048C652.739 43.536 652.995 42.9387 652.995 42.256V20.624C652.995 19.9413 652.739 19.3653 652.227 18.896C651.757 18.384 651.181 18.128 650.499 18.128H628.227C627.544 18.128 626.947 18.384 626.435 18.896C625.965 19.3653 625.731 19.9413 625.731 20.624V42.256C625.731 42.9387 625.965 43.536 626.435 44.048C626.947 44.5173 627.544 44.752 628.227 44.752ZM664.987 64.72V12.88H695.067C696.475 12.88 697.755 13.2427 698.907 13.968C700.102 14.6507 701.041 15.5893 701.723 16.784C702.449 17.936 702.811 19.216 702.811 20.624V42.256C702.811 43.664 702.449 44.9653 701.723 46.16C701.041 47.312 700.102 48.2507 698.907 48.976C697.755 49.6587 696.475 50 695.067 50H670.235V64.72H664.987ZM672.795 44.752H695.067C695.75 44.752 696.326 44.5173 696.795 44.048C697.307 43.536 697.563 42.9387 697.563 42.256V20.624C697.563 19.9413 697.307 19.3653 696.795 18.896C696.326 18.384 695.75 18.128 695.067 18.128H672.795C672.113 18.128 671.515 18.384 671.003 18.896C670.491 19.3653 670.235 19.9413 670.235 20.624V42.256C670.235 42.9387 670.491 43.536 671.003 44.048C671.515 44.5173 672.113 44.752 672.795 44.752ZM103.014 124C101.606 124 100.305 123.659 99.11 122.976C97.958 122.293 97.0407 121.376 96.358 120.224C95.6753 119.029 95.334 117.728 95.334 116.32V85.6C95.334 84.192 95.6753 82.912 96.358 81.76C97.0407 80.5653 97.958 79.6267 99.11 78.944C100.305 78.2613 101.606 77.92 103.014 77.92H133.734C135.142 77.92 136.422 78.2613 137.574 78.944C138.769 79.6267 139.707 80.5653 140.39 81.76C141.073 82.912 141.414 84.192 141.414 85.6V87.456H136.23V85.6C136.23 84.9173 135.974 84.3413 135.462 83.872C134.993 83.36 134.417 83.104 133.734 83.104H103.014C102.331 83.104 101.734 83.36 101.222 83.872C100.753 84.3413 100.518 84.9173 100.518 85.6V116.32C100.518 117.003 100.753 117.6 101.222 118.112C101.734 118.581 102.331 118.816 103.014 118.816H133.734C134.417 118.816 134.993 118.581 135.462 118.112C135.974 117.6 136.23 117.003 136.23 116.32V104.928H124.838V99.68H141.414V116.32C141.414 117.728 141.073 119.029 140.39 120.224C139.707 121.376 138.769 122.293 137.574 122.976C136.422 123.659 135.142 124 133.734 124H103.014ZM155.947 124C154.539 124 153.238 123.659 152.043 122.976C150.891 122.251 149.952 121.312 149.227 120.16C148.544 118.965 148.203 117.664 148.203 116.256V102.816H180.715V94.624C180.715 93.9413 180.459 93.3653 179.947 92.896C179.478 92.384 178.902 92.128 178.219 92.128H148.203V86.88H178.219C179.67 86.88 180.971 87.2427 182.123 87.968C183.318 88.6507 184.256 89.5893 184.939 90.784C185.664 91.936 186.027 93.216 186.027 94.624V124H155.947ZM155.947 118.752H180.715V108.064H153.451V116.256C153.451 116.939 153.686 117.536 154.155 118.048C154.667 118.517 155.264 118.752 155.947 118.752ZM191.519 124V86.88H240.543C241.993 86.88 243.295 87.2427 244.447 87.968C245.641 88.6507 246.58 89.5893 247.263 90.784C247.945 91.936 248.287 93.216 248.287 94.624V124H243.103V94.624C243.103 93.9413 242.847 93.3653 242.335 92.896C241.823 92.384 241.225 92.128 240.543 92.128H225.119C224.436 92.128 223.839 92.384 223.326 92.896C222.857 93.3653 222.623 93.9413 222.623 94.624V124H217.311V94.624C217.311 93.9413 217.055 93.3653 216.543 92.896C216.073 92.384 215.497 92.128 214.815 92.128H199.327C198.644 92.128 198.047 92.384 197.535 92.896C197.065 93.3653 196.831 93.9413 196.831 94.624V124H191.519ZM253.953 124V86.88H259.201V124H253.953ZM253.953 79.968V74.72H259.201V79.968H253.953ZM266.456 124V86.88H296.536C297.944 86.88 299.224 87.2427 300.376 87.968C301.571 88.6507 302.509 89.5893 303.192 90.784C303.917 91.936 304.28 93.216 304.28 94.624V124H299.032V94.624C299.032 93.9413 298.776 93.3653 298.264 92.896C297.795 92.384 297.219 92.128 296.536 92.128H274.264C273.581 92.128 272.984 92.384 272.472 92.896C271.96 93.3653 271.704 93.9413 271.704 94.624V124H266.456ZM317.035 138.656V133.344H340.203C340.885 133.344 341.461 133.088 341.931 132.576C342.443 132.107 342.699 131.531 342.699 130.848V124H317.931C316.523 124 315.221 123.659 314.027 122.976C312.875 122.251 311.936 121.312 311.211 120.16C310.528 118.965 310.187 117.664 310.187 116.256V94.624C310.187 93.216 310.528 91.936 311.211 90.784C311.936 89.5893 312.875 88.6507 314.027 87.968C315.221 87.2427 316.523 86.88 317.931 86.88H340.203C341.653 86.88 342.955 87.2427 344.107 87.968C345.301 88.6507 346.24 89.5893 346.923 90.784C347.605 91.936 347.947 93.216 347.947 94.624V130.848C347.947 132.299 347.605 133.6 346.923 134.752C346.24 135.947 345.301 136.885 344.107 137.568C342.955 138.293 341.653 138.656 340.203 138.656H317.035ZM317.931 118.752H340.203C340.885 118.752 341.461 118.517 341.931 118.048C342.443 117.536 342.699 116.939 342.699 116.256V94.624C342.699 93.9413 342.443 93.3653 341.931 92.896C341.461 92.384 340.885 92.128 340.203 92.128H317.931C317.248 92.128 316.651 92.384 316.139 92.896C315.669 93.3653 315.435 93.9413 315.435 94.624V116.256C315.435 116.939 315.669 117.536 316.139 118.048C316.651 118.517 317.248 118.752 317.931 118.752ZM372.272 124V77.92H379.376L413.168 118.112V77.92H418.352V124H411.248L377.456 83.808V124H372.272ZM432.946 124C431.538 124 430.236 123.659 429.042 122.976C427.89 122.251 426.951 121.312 426.226 120.16C425.543 118.965 425.202 117.664 425.202 116.256V94.624C425.202 93.216 425.543 91.936 426.226 90.784C426.951 89.5893 427.89 88.6507 429.042 87.968C430.236 87.2427 431.538 86.88 432.946 86.88H455.218C456.668 86.88 457.97 87.2427 459.122 87.968C460.316 88.6507 461.255 89.5893 461.938 90.784C462.663 91.936 463.026 93.216 463.026 94.624V108.064H430.45V116.256C430.45 116.939 430.684 117.536 431.154 118.048C431.666 118.517 432.263 118.752 432.946 118.752H463.026V124H432.946ZM430.45 102.816H457.714V94.624C457.714 93.9413 457.458 93.3653 456.946 92.896C456.476 92.384 455.9 92.128 455.218 92.128H432.946C432.263 92.128 431.666 92.384 431.154 92.896C430.684 93.3653 430.45 93.9413 430.45 94.624V102.816ZM476.321 124C474.913 124 473.611 123.659 472.417 122.976C471.265 122.251 470.326 121.312 469.601 120.16C468.918 118.965 468.577 117.664 468.577 116.256V94.624C468.577 93.216 468.918 91.936 469.601 90.784C470.326 89.5893 471.265 88.6507 472.417 87.968C473.611 87.2427 474.913 86.88 476.321 86.88H498.593C500.043 86.88 501.345 87.2427 502.497 87.968C503.691 88.6507 504.63 89.5893 505.312 90.784C506.038 91.936 506.401 93.216 506.401 94.624V108.064H473.825V116.256C473.825 116.939 474.059 117.536 474.529 118.048C475.041 118.517 475.638 118.752 476.321 118.752H506.401V124H476.321ZM473.825 102.816H501.089V94.624C501.089 93.9413 500.833 93.3653 500.321 92.896C499.851 92.384 499.275 92.128 498.593 92.128H476.321C475.638 92.128 475.041 92.384 474.529 92.896C474.059 93.3653 473.825 93.9413 473.825 94.624V102.816ZM518.905 124C517.454 124 516.132 123.659 514.937 122.976C513.785 122.251 512.846 121.312 512.121 120.16C511.438 118.965 511.097 117.664 511.097 116.256V94.624C511.097 93.216 511.438 91.936 512.121 90.784C512.846 89.5893 513.785 88.6507 514.937 87.968C516.132 87.2427 517.454 86.88 518.905 86.88H543.673V74.72H548.921V124H518.905ZM518.905 118.752H541.177C541.86 118.752 542.436 118.517 542.905 118.048C543.417 117.536 543.673 116.939 543.673 116.256V94.624C543.673 93.9413 543.417 93.3653 542.905 92.896C542.436 92.384 541.86 92.128 541.177 92.128H518.905C518.222 92.128 517.625 92.384 517.113 92.896C516.644 93.3653 516.409 93.9413 516.409 94.624V116.256C516.409 116.939 516.644 117.536 517.113 118.048C517.625 118.517 518.222 118.752 518.905 118.752ZM563.129 124C561.721 124 560.419 123.659 559.225 122.976C558.073 122.251 557.134 121.312 556.409 120.16C555.726 118.965 555.385 117.664 555.385 116.256V115.744H560.633V116.256C560.633 116.939 560.867 117.536 561.337 118.048C561.849 118.517 562.446 118.752 563.129 118.752H585.401C586.083 118.752 586.659 118.517 587.129 118.048C587.641 117.536 587.897 116.939 587.897 116.256V110.56C587.897 109.877 587.641 109.301 587.129 108.832C586.659 108.32 586.083 108.064 585.401 108.064H563.129C561.721 108.064 560.419 107.723 559.225 107.04C558.073 106.315 557.134 105.376 556.409 104.224C555.726 103.029 555.385 101.728 555.385 100.32V94.624C555.385 93.216 555.726 91.936 556.409 90.784C557.134 89.5893 558.073 88.6507 559.225 87.968C560.419 87.2427 561.721 86.88 563.129 86.88H585.401C586.851 86.88 588.153 87.2427 589.305 87.968C590.499 88.6507 591.438 89.5893 592.121 90.784C592.846 91.936 593.209 93.216 593.209 94.624V95.136H587.897V94.624C587.897 93.9413 587.641 93.3653 587.129 92.896C586.659 92.384 586.083 92.128 585.401 92.128H563.129C562.446 92.128 561.849 92.384 561.337 92.896C560.867 93.3653 560.633 93.9413 560.633 94.624V100.32C560.633 101.003 560.867 101.6 561.337 102.112C561.849 102.581 562.446 102.816 563.129 102.816H585.401C586.851 102.816 588.153 103.179 589.305 103.904C590.499 104.587 591.438 105.525 592.121 106.72C592.846 107.872 593.209 109.152 593.209 110.56V116.256C593.209 117.664 592.846 118.965 592.121 120.16C591.438 121.312 590.499 122.251 589.305 122.976C588.153 123.659 586.851 124 585.401 124H563.129ZM599.9 111.008V77.92H605.148V111.008H599.9ZM599.9 124V118.752H605.148V124H599.9Z" fill="white"/>
</svg>
